<mxfile host="app.diagrams.net" modified="2024-04-12T09:21:30.464Z" agent="Mozilla/5.0 (Windows NT 10.0; Win64; x64; rv:124.0) Gecko/20100101 Firefox/124.0" etag="9Ck0oJQ9OiObnvbnn-Wt" version="24.2.3" type="google">
  <diagram name="Page-1" id="lEiDeo3Pqu71zK7tP6ng">
    <mxGraphModel grid="1" page="1" gridSize="10" guides="1" tooltips="1" connect="1" arrows="1" fold="1" pageScale="1" pageWidth="1600" pageHeight="1200" math="0" shadow="0">
      <root>
        <mxCell id="0" />
        <mxCell id="1" parent="0" />
        <mxCell id="0yT8Msxnh35Q_DWWeLan-3" value="" style="edgeStyle=orthogonalEdgeStyle;rounded=0;orthogonalLoop=1;jettySize=auto;html=1;fontFamily=Lucida Console;fontSize=21;" edge="1" parent="1" source="0yT8Msxnh35Q_DWWeLan-1" target="0yT8Msxnh35Q_DWWeLan-2">
          <mxGeometry relative="1" as="geometry" />
        </mxCell>
        <mxCell id="0yT8Msxnh35Q_DWWeLan-1" value="Appropriate Packages" style="rounded=1;whiteSpace=wrap;html=1;fontFamily=Lucida Console;fontSize=21;" vertex="1" parent="1">
          <mxGeometry x="40" y="482.5" width="160" height="80" as="geometry" />
        </mxCell>
        <mxCell id="0yT8Msxnh35Q_DWWeLan-5" value="" style="edgeStyle=orthogonalEdgeStyle;rounded=0;orthogonalLoop=1;jettySize=auto;html=1;fontFamily=Lucida Console;fontSize=21;" edge="1" parent="1" source="0yT8Msxnh35Q_DWWeLan-2" target="0yT8Msxnh35Q_DWWeLan-4">
          <mxGeometry relative="1" as="geometry" />
        </mxCell>
        <mxCell id="0yT8Msxnh35Q_DWWeLan-2" value="Data Preprocessing" style="whiteSpace=wrap;html=1;rounded=1;fontFamily=Lucida Console;fontSize=21;" vertex="1" parent="1">
          <mxGeometry x="30" y="222.5" width="180" height="70" as="geometry" />
        </mxCell>
        <mxCell id="0yT8Msxnh35Q_DWWeLan-9" value="" style="edgeStyle=orthogonalEdgeStyle;rounded=0;orthogonalLoop=1;jettySize=auto;html=1;fontFamily=Lucida Console;fontSize=21;" edge="1" parent="1" source="0yT8Msxnh35Q_DWWeLan-4">
          <mxGeometry relative="1" as="geometry">
            <mxPoint x="450" y="342.5" as="targetPoint" />
          </mxGeometry>
        </mxCell>
        <mxCell id="0yT8Msxnh35Q_DWWeLan-4" value="Train/Test Split" style="whiteSpace=wrap;html=1;rounded=1;fontFamily=Lucida Console;fontSize=21;" vertex="1" parent="1">
          <mxGeometry x="260" y="225" width="140" height="65" as="geometry" />
        </mxCell>
        <mxCell id="0yT8Msxnh35Q_DWWeLan-15" value="Neural Network" style="rounded=1;whiteSpace=wrap;html=1;fontFamily=Lucida Console;fontSize=21;" vertex="1" parent="1">
          <mxGeometry x="200" y="362.5" width="120" height="60" as="geometry" />
        </mxCell>
        <mxCell id="0yT8Msxnh35Q_DWWeLan-16" value="Random Forest" style="rounded=1;whiteSpace=wrap;html=1;fontFamily=Lucida Console;fontSize=21;" vertex="1" parent="1">
          <mxGeometry x="520" y="362.5" width="120" height="60" as="geometry" />
        </mxCell>
        <mxCell id="0yT8Msxnh35Q_DWWeLan-20" value="" style="group;flipV=1;fontFamily=Lucida Console;fontSize=21;" connectable="0" vertex="1" parent="1">
          <mxGeometry x="260" y="422.5" width="319.99999999999994" height="20" as="geometry" />
        </mxCell>
        <mxCell id="0yT8Msxnh35Q_DWWeLan-17" value="" style="endArrow=none;html=1;rounded=0;fontFamily=Lucida Console;fontSize=21;" edge="1" parent="0yT8Msxnh35Q_DWWeLan-20">
          <mxGeometry width="50" height="50" relative="1" as="geometry">
            <mxPoint y="20" as="sourcePoint" />
            <mxPoint x="319.99999999999994" y="20" as="targetPoint" />
            <Array as="points">
              <mxPoint x="120" y="20" />
            </Array>
          </mxGeometry>
        </mxCell>
        <mxCell id="0yT8Msxnh35Q_DWWeLan-18" value="" style="endArrow=none;html=1;rounded=0;fontFamily=Lucida Console;fontSize=21;" edge="1" parent="0yT8Msxnh35Q_DWWeLan-20">
          <mxGeometry width="50" height="50" relative="1" as="geometry">
            <mxPoint as="sourcePoint" />
            <mxPoint y="20" as="targetPoint" />
            <Array as="points" />
          </mxGeometry>
        </mxCell>
        <mxCell id="0yT8Msxnh35Q_DWWeLan-19" value="" style="endArrow=none;html=1;rounded=0;fontFamily=Lucida Console;fontSize=21;" edge="1" parent="0yT8Msxnh35Q_DWWeLan-20">
          <mxGeometry width="50" height="50" relative="1" as="geometry">
            <mxPoint x="319.99999999999994" as="sourcePoint" />
            <mxPoint x="319.99999999999994" y="20" as="targetPoint" />
            <Array as="points" />
          </mxGeometry>
        </mxCell>
        <mxCell id="0yT8Msxnh35Q_DWWeLan-23" value="" style="group;fontFamily=Lucida Console;fontSize=21;" connectable="0" vertex="1" parent="1">
          <mxGeometry x="260" y="342.5" width="320" height="20" as="geometry" />
        </mxCell>
        <mxCell id="0yT8Msxnh35Q_DWWeLan-10" value="" style="endArrow=none;html=1;rounded=0;fontFamily=Lucida Console;fontSize=21;" edge="1" parent="0yT8Msxnh35Q_DWWeLan-23">
          <mxGeometry width="50" height="50" relative="1" as="geometry">
            <mxPoint as="sourcePoint" />
            <mxPoint x="320" as="targetPoint" />
            <Array as="points">
              <mxPoint x="120" />
            </Array>
          </mxGeometry>
        </mxCell>
        <mxCell id="0yT8Msxnh35Q_DWWeLan-12" value="" style="endArrow=none;html=1;rounded=0;fontFamily=Lucida Console;fontSize=21;" edge="1" parent="0yT8Msxnh35Q_DWWeLan-23">
          <mxGeometry width="50" height="50" relative="1" as="geometry">
            <mxPoint y="20" as="sourcePoint" />
            <mxPoint as="targetPoint" />
            <Array as="points" />
          </mxGeometry>
        </mxCell>
        <mxCell id="0yT8Msxnh35Q_DWWeLan-13" value="" style="endArrow=none;html=1;rounded=0;fontFamily=Lucida Console;fontSize=21;" edge="1" parent="0yT8Msxnh35Q_DWWeLan-23">
          <mxGeometry width="50" height="50" relative="1" as="geometry">
            <mxPoint x="320" y="20" as="sourcePoint" />
            <mxPoint x="320" as="targetPoint" />
            <Array as="points" />
          </mxGeometry>
        </mxCell>
        <mxCell id="0yT8Msxnh35Q_DWWeLan-24" value="" style="endArrow=classic;html=1;rounded=0;fontFamily=Lucida Console;fontSize=21;" edge="1" parent="1">
          <mxGeometry width="50" height="50" relative="1" as="geometry">
            <mxPoint x="420" y="442.5" as="sourcePoint" />
            <mxPoint x="420" y="492.5" as="targetPoint" />
            <Array as="points" />
          </mxGeometry>
        </mxCell>
        <mxCell id="0yT8Msxnh35Q_DWWeLan-37" value="" style="edgeStyle=orthogonalEdgeStyle;rounded=0;orthogonalLoop=1;jettySize=auto;html=1;fontFamily=Lucida Console;fontSize=21;" edge="1" parent="1" source="0yT8Msxnh35Q_DWWeLan-25" target="0yT8Msxnh35Q_DWWeLan-36">
          <mxGeometry relative="1" as="geometry" />
        </mxCell>
        <mxCell id="0yT8Msxnh35Q_DWWeLan-25" value="Train Model Using Default" style="rounded=1;whiteSpace=wrap;html=1;fontFamily=Lucida Console;fontSize=21;" vertex="1" parent="1">
          <mxGeometry x="330" y="492.5" width="180" height="80" as="geometry" />
        </mxCell>
        <mxCell id="0yT8Msxnh35Q_DWWeLan-39" value="" style="edgeStyle=orthogonalEdgeStyle;rounded=0;orthogonalLoop=1;jettySize=auto;html=1;fontFamily=Lucida Console;fontSize=21;" edge="1" parent="1" source="0yT8Msxnh35Q_DWWeLan-36" target="0yT8Msxnh35Q_DWWeLan-38">
          <mxGeometry relative="1" as="geometry" />
        </mxCell>
        <mxCell id="0yT8Msxnh35Q_DWWeLan-41" value="" style="edgeStyle=orthogonalEdgeStyle;rounded=0;orthogonalLoop=1;jettySize=auto;html=1;fontFamily=Lucida Console;fontSize=21;" edge="1" parent="1" source="0yT8Msxnh35Q_DWWeLan-36" target="0yT8Msxnh35Q_DWWeLan-40">
          <mxGeometry relative="1" as="geometry" />
        </mxCell>
        <mxCell id="0yT8Msxnh35Q_DWWeLan-36" value="Evaluate and Compare Default Model Performances " style="whiteSpace=wrap;html=1;rounded=1;fontFamily=Lucida Console;fontSize=21;" vertex="1" parent="1">
          <mxGeometry x="680" y="352.5" width="240" height="80" as="geometry" />
        </mxCell>
        <mxCell id="0yT8Msxnh35Q_DWWeLan-43" value="" style="edgeStyle=orthogonalEdgeStyle;rounded=0;orthogonalLoop=1;jettySize=auto;html=1;fontFamily=Lucida Console;fontSize=21;" edge="1" parent="1" source="0yT8Msxnh35Q_DWWeLan-38" target="0yT8Msxnh35Q_DWWeLan-42">
          <mxGeometry relative="1" as="geometry" />
        </mxCell>
        <mxCell id="0yT8Msxnh35Q_DWWeLan-38" value="Neural Network" style="whiteSpace=wrap;html=1;rounded=1;fontFamily=Lucida Console;fontSize=21;" vertex="1" parent="1">
          <mxGeometry x="739.9999999999998" y="202.5" width="120" height="60" as="geometry" />
        </mxCell>
        <mxCell id="0yT8Msxnh35Q_DWWeLan-40" value="Random Forest" style="whiteSpace=wrap;html=1;rounded=1;fontFamily=Lucida Console;fontSize=21;" vertex="1" parent="1">
          <mxGeometry x="930" y="490" width="140" height="70" as="geometry" />
        </mxCell>
        <mxCell id="0yT8Msxnh35Q_DWWeLan-45" value="" style="edgeStyle=orthogonalEdgeStyle;rounded=0;orthogonalLoop=1;jettySize=auto;html=1;fontFamily=Lucida Console;fontSize=21;" edge="1" parent="1" source="0yT8Msxnh35Q_DWWeLan-42" target="0yT8Msxnh35Q_DWWeLan-44">
          <mxGeometry relative="1" as="geometry" />
        </mxCell>
        <mxCell id="0yT8Msxnh35Q_DWWeLan-42" value="Building Optimal Neural Network Architecture" style="whiteSpace=wrap;html=1;rounded=1;fontFamily=Lucida Console;fontSize=21;" vertex="1" parent="1">
          <mxGeometry x="1010" y="188.75" width="220" height="87.5" as="geometry" />
        </mxCell>
        <mxCell id="0yT8Msxnh35Q_DWWeLan-48" value="" style="edgeStyle=orthogonalEdgeStyle;rounded=0;orthogonalLoop=1;jettySize=auto;html=1;fontFamily=Lucida Console;fontSize=21;" edge="1" parent="1" source="0yT8Msxnh35Q_DWWeLan-44" target="0yT8Msxnh35Q_DWWeLan-47">
          <mxGeometry relative="1" as="geometry" />
        </mxCell>
        <mxCell id="0yT8Msxnh35Q_DWWeLan-44" value="Fine-tuning Hyperparameters" style="whiteSpace=wrap;html=1;rounded=1;fontFamily=Lucida Console;fontSize=21;" vertex="1" parent="1">
          <mxGeometry x="1100" y="342.5" width="200" height="97.5" as="geometry" />
        </mxCell>
        <mxCell id="0yT8Msxnh35Q_DWWeLan-46" value="" style="endArrow=classic;html=1;rounded=0;exitX=1;exitY=0.5;exitDx=0;exitDy=0;entryX=0.5;entryY=1;entryDx=0;entryDy=0;fontFamily=Lucida Console;fontSize=21;" edge="1" parent="1" source="0yT8Msxnh35Q_DWWeLan-40" target="0yT8Msxnh35Q_DWWeLan-44">
          <mxGeometry width="50" height="50" relative="1" as="geometry">
            <mxPoint x="660" y="472.5" as="sourcePoint" />
            <mxPoint x="710" y="422.5" as="targetPoint" />
            <Array as="points">
              <mxPoint x="1200" y="523" />
            </Array>
          </mxGeometry>
        </mxCell>
        <mxCell id="0yT8Msxnh35Q_DWWeLan-50" value="" style="edgeStyle=orthogonalEdgeStyle;rounded=0;orthogonalLoop=1;jettySize=auto;html=1;fontFamily=Lucida Console;fontSize=21;" edge="1" parent="1" source="0yT8Msxnh35Q_DWWeLan-47" target="0yT8Msxnh35Q_DWWeLan-49">
          <mxGeometry relative="1" as="geometry" />
        </mxCell>
        <mxCell id="0yT8Msxnh35Q_DWWeLan-47" value="Train and Evaluate Final Optimized Model" style="whiteSpace=wrap;html=1;rounded=1;fontFamily=Lucida Console;fontSize=21;" vertex="1" parent="1">
          <mxGeometry x="1370" y="247.5" width="180" height="105" as="geometry" />
        </mxCell>
        <mxCell id="0yT8Msxnh35Q_DWWeLan-49" value="Compare the Two Optimized Models" style="whiteSpace=wrap;html=1;rounded=1;fontFamily=Lucida Console;fontSize=21;" vertex="1" parent="1">
          <mxGeometry x="1365" y="465" width="190" height="87.5" as="geometry" />
        </mxCell>
      </root>
    </mxGraphModel>
  </diagram>
</mxfile>
